# xmcd
#
# Track frame offsets: 
#        150
#        16277
#        47020
#        80035
#        98857
#        111697
#        128337
#        144786
#        162256
#        180587
#        195862
#        216043
#
# Disc length: 3090 seconds
#
# Revision: 7
# Processed by: cddbd v1.5.2PL0 Copyright (c) Steve Scherf et al.
# Submitted via: ExactAudioCopy v1.0b3
#
DISCID=970c100c
DTITLE=Joe Bonamassa - Blues Deluxe
DYEAR=2003
DGENRE=Blues
TTITLE0=You Upset Me Baby
TTITLE1=Burning Hell
TTITLE2=Blues Deluxe
TTITLE3=Man Of Many Words
TTITLE4=Woke Up Dreaming
TTITLE5=I Don't Live Anywhere
TTITLE6=Wild About You Baby
TTITLE7=Long Distance Blues
TTITLE8=Pack It Up
TTITLE9=Left Overs
TTITLE10=Walking Blues
TTITLE11=Mumbling Word
EXTD=
EXTT0=
EXTT1=
EXTT2=
EXTT3=
EXTT4=
EXTT5=
EXTT6=
EXTT7=
EXTT8=
EXTT9=
EXTT10=
EXTT11=
PLAYORDER=
